<svg width="169" height="153" viewBox="0 0 169 153" fill="none" xmlns="http://www.w3.org/2000/svg">
<path d="M124.269 15.7486C141.769 -14.7514 178.269 16.2486 152.769 38.2486L124.269 15.7486Z" fill="#1E1E1E" stroke="black" stroke-width="5"/>
<path d="M45.269 15.9971C27.769 -14.5029 -8.73096 16.4971 16.769 38.4971L45.269 15.9971Z" fill="#1E1E1E" stroke="black" stroke-width="5"/>
<path d="M84.5 5.5C130.076 5.5 166.5 38.2313 166.5 78C166.5 108.166 157.243 126.038 142.784 136.508C128.151 147.104 107.693 150.5 84.5 150.5C61.3071 150.5 40.8491 147.104 26.2158 136.508C11.7572 126.038 2.5 108.166 2.5 78C2.5 38.2313 38.924 5.5 84.5 5.5Z" fill="#E9E4E0" stroke="black" stroke-width="5"/>
<ellipse cx="142.5" cy="106" rx="11.5" ry="7" fill="#F4C9D3"/>
<ellipse cx="26.5" cy="106" rx="11.5" ry="7" fill="#F4C9D3"/>
<path d="M96 86C96 89.3137 91.299 92 85.5 92C79.701 92 75 89.3137 75 86C75 80 75 80 85.5 80C96 80 96 80 96 86Z" fill="black"/>
<path d="M83.9997 113C83.9997 113.828 84.6713 114.5 85.4997 114.5C86.3281 114.5 86.9997 113.828 86.9997 113L83.9997 113ZM85.4997 92L83.9997 92L83.9997 113L85.4997 113L86.9997 113L86.9997 92L85.4997 92Z" fill="black"/>
<path d="M154 78.5C154 90 145.5 97 134.5 97C117.5 97 103.5 79.598 103.5 68C103.5 53 113 53 123 53C135.979 53 154 59.5 154 78.5Z" fill="#383637"/>
<path d="M130.968 64.5858C127.273 68.561 123.363 70.8969 117.234 73.6703C116.806 73.8639 116.564 74.3321 116.687 74.7852C119.211 84.0922 130.547 82.8802 133.5 80C136.422 77.1491 137.891 68.1872 132.18 64.4064C131.793 64.1506 131.283 64.2464 130.968 64.5858Z" fill="black" stroke="black"/>
<circle cx="121.5" cy="77.5" r="2.5" fill="white"/>
<path d="M16 78.5C16 90 24.5 97 35.5 97C52.5 97 66.5 79.598 66.5 68C66.5 53 57 53 47 53C34.0213 53 16 59.5 16 78.5Z" fill="#383637"/>
<path d="M40.11 64.5858C43.8043 68.561 47.715 70.8969 53.8435 73.6703C54.2712 73.8639 54.514 74.3321 54.3911 74.7852C51.8663 84.0922 40.5302 82.8802 37.5777 80C34.6553 77.1491 33.1868 68.1872 38.898 64.4064C39.2844 64.1506 39.7946 64.2464 40.11 64.5858Z" fill="black" stroke="black"/>
<circle cx="50.5" cy="77.5" r="2.5" fill="white"/>
</svg>
