<svg width="169" height="153" viewBox="0 0 169 153" fill="none" xmlns="http://www.w3.org/2000/svg">
<path d="M124.269 15.7486C141.769 -14.7514 178.269 16.2486 152.769 38.2486L124.269 15.7486Z" fill="#1E1E1E" stroke="black" stroke-width="5"/>
<path d="M45.269 15.9971C27.769 -14.5029 -8.73096 16.4971 16.769 38.4971L45.269 15.9971Z" fill="#1E1E1E" stroke="black" stroke-width="5"/>
<path d="M84.5 5.5C130.076 5.5 166.5 38.2313 166.5 78C166.5 108.166 157.243 126.038 142.784 136.508C128.151 147.104 107.693 150.5 84.5 150.5C61.3071 150.5 40.8491 147.104 26.2158 136.508C11.7572 126.038 2.5 108.166 2.5 78C2.5 38.2313 38.924 5.5 84.5 5.5Z" fill="#E9E4E0" stroke="black" stroke-width="5"/>
<ellipse cx="142.5" cy="106" rx="11.5" ry="7" fill="#F4C9D3"/>
<ellipse cx="26.5" cy="106" rx="11.5" ry="7" fill="#F4C9D3"/>
<path d="M71.9965 99.3789C71.3774 98.8285 70.4293 98.8843 69.8789 99.5035C69.3285 100.123 69.3843 101.071 70.0035 101.621L71.9965 99.3789ZM85.5 99.5L86.6609 98.5501L85.5 97.1312L84.3391 98.5501L85.5 99.5ZM100.997 101.621C101.616 101.071 101.671 100.123 101.121 99.5035C100.571 98.8843 99.6226 98.8285 99.0035 99.3789L100.997 101.621ZM71 100.5L70.0035 101.621C72.4435 103.79 75.2977 105.137 78.2875 105.062C81.316 104.986 84.1984 103.46 86.6609 100.45L85.5 99.5L84.3391 98.5501C82.3016 101.04 80.184 102.014 78.2125 102.063C76.2023 102.113 74.0565 101.21 71.9965 99.3789L71 100.5ZM100 100.5L99.0035 99.3789C96.9435 101.21 94.7977 102.113 92.7875 102.063C90.816 102.014 88.6984 101.04 86.6609 98.5501L85.5 99.5L84.3391 100.45C86.8016 103.46 89.684 104.986 92.7125 105.062C95.7023 105.137 98.5565 103.79 100.997 101.621L100 100.5ZM85.5 91.5H84V100H85.5H87V91.5H85.5Z" fill="black"/>
<path d="M96 86C96 89.3137 91.299 92 85.5 92C79.701 92 75 89.3137 75 86C75 80 75 80 85.5 80C96 80 96 80 96 86Z" fill="black"/>
<path d="M154 78.5C154 90 145.5 97 134.5 97C117.5 97 103.5 79.598 103.5 68C103.5 53 113 53 123 53C135.979 53 154 59.5 154 78.5Z" fill="#383637"/>
<circle cx="117.5" cy="70.5" r="9.5" fill="black"/>
<circle cx="122.5" cy="66.5" r="2.5" fill="white"/>
<path d="M16 78.5C16 90 24.5 97 35.5 97C52.5 97 66.5 79.598 66.5 68C66.5 53 57 53 47 53C34.0213 53 16 59.5 16 78.5Z" fill="#383637"/>
<circle cx="52.5" cy="70.5" r="9.5" fill="black"/>
<circle cx="57.5" cy="66.5" r="2.5" fill="white"/>
</svg>
