<svg width="170" height="153" viewBox="0 0 170 153" fill="none" xmlns="http://www.w3.org/2000/svg">
<path d="M124.769 15.7486C142.269 -14.7514 178.769 16.2486 153.269 38.2486L124.769 15.7486Z" fill="#1E1E1E" stroke="black" stroke-width="5"/>
<path d="M45.769 15.9971C28.269 -14.5029 -8.23096 16.4971 17.269 38.4971L45.769 15.9971Z" fill="#1E1E1E" stroke="black" stroke-width="5"/>
<path d="M85 5.5C130.576 5.5 167 38.2313 167 78C167 108.166 157.743 126.038 143.284 136.508C128.651 147.104 108.193 150.5 85 150.5C61.8071 150.5 41.3491 147.104 26.7158 136.508C12.2572 126.038 3 108.166 3 78C3 38.2313 39.424 5.5 85 5.5Z" fill="#E9E4E0" stroke="black" stroke-width="5"/>
<ellipse cx="143" cy="106" rx="11.5" ry="7" fill="#F4C9D3"/>
<ellipse cx="27" cy="106" rx="11.5" ry="7" fill="#F4C9D3"/>
<path d="M86 91V112.5" stroke="black" stroke-width="3"/>
<path d="M74.5 116C79.5 110 91.5 110 96.5 116" stroke="black" stroke-width="3" stroke-linecap="round"/>
<path d="M96.5 86C96.5 89.3137 91.799 92 86 92C80.201 92 75.5 89.3137 75.5 86C75.5 80 75.5 80 86 80C96.5 80 96.5 80 96.5 86Z" fill="black"/>
<path d="M154.5 78.5C154.5 90 146 97 135 97C118 97 104 79.598 104 68C104 53 113.5 53 123.5 53C136.479 53 154.5 59.5 154.5 78.5Z" fill="#383637"/>
<circle cx="118" cy="70.5" r="9.5" fill="black"/>
<path d="M121.5 67C121.5 69.7614 119.261 72 116.5 72C113.739 72 111.5 69.7614 111.5 67C111.5 64.2386 113.739 62 116.5 62C119.261 62 121.5 64.2386 121.5 67Z" fill="white"/>
<path d="M16.5 78.5C16.5 90 25 97 36 97C53 97 67 79.598 67 68C67 53 57.5 53 47.5 53C34.5213 53 16.5 59.5 16.5 78.5Z" fill="#383637"/>
<circle cx="53" cy="70.5" r="9.5" fill="black"/>
<circle cx="55.5" cy="67" r="5" fill="white"/>
</svg>
